<svg width="60" height="60" viewBox="0 0 60 60" fill="none" xmlns="http://www.w3.org/2000/svg">
  <!-- Scope/Target Circles -->
  <circle cx="30" cy="30" r="28" stroke="url(#gradient1)" stroke-width="2" fill="none"/>
  <circle cx="30" cy="30" r="20" stroke="url(#gradient1)" stroke-width="1.5" fill="none" opacity="0.7"/>
  <circle cx="30" cy="30" r="12" stroke="url(#gradient1)" stroke-width="1" fill="none" opacity="0.5"/>
  
  <!-- AI Neural Network Pattern -->
  <g opacity="0.8">
    <circle cx="20" cy="20" r="2" fill="#3b82f6"/>
    <circle cx="40" cy="20" r="2" fill="#3b82f6"/>
    <circle cx="30" cy="35" r="2" fill="#06b6d4"/>
    <circle cx="15" cy="40" r="2" fill="#06b6d4"/>
    <circle cx="45" cy="40" r="2" fill="#06b6d4"/>
    
    <line x1="20" y1="20" x2="30" y2="35" stroke="url(#gradient1)" stroke-width="1" opacity="0.6"/>
    <line x1="40" y1="20" x2="30" y2="35" stroke="url(#gradient1)" stroke-width="1" opacity="0.6"/>
    <line x1="30" y1="35" x2="15" y2="40" stroke="url(#gradient1)" stroke-width="1" opacity="0.6"/>
    <line x1="30" y1="35" x2="45" y2="40" stroke="url(#gradient1)" stroke-width="1" opacity="0.6"/>
  </g>
  
  <!-- Stock Chart Arrow -->
  <path d="M15 45 L25 35 L35 40 L45 25" stroke="#10b981" stroke-width="2.5" fill="none" stroke-linecap="round"/>
  <polygon points="43,23 47,25 43,27" fill="#10b981"/>
  
  <defs>
    <linearGradient id="gradient1" x1="0%" y1="0%" x2="100%" y2="100%">
      <stop offset="0%" style="stop-color:#3b82f6"/>
      <stop offset="100%" style="stop-color:#06b6d4"/>
    </linearGradient>
  </defs>
</svg>